<svg width="96" height="24" viewBox="0 0 96 24" fill="none" xmlns="http://www.w3.org/2000/svg">
<rect opacity="0.06" width="96" height="24" rx="5" fill="white"/>
<path d="M10.04 9.694L12.055 9.096V17H13.16V7.77L10.04 8.55V9.694ZM21.6645 14.01C21.6645 13.4033 21.5475 12.8703 21.3135 12.411C21.0795 11.9517 20.7545 11.592 20.3385 11.332C19.9312 11.072 19.4675 10.942 18.9475 10.942C18.7222 10.942 18.4925 10.9723 18.2585 11.033C18.0332 11.085 17.8122 11.1673 17.5955 11.28L18.2065 8.875H21.6385V7.9H17.3485L16.1525 12.749C16.4645 12.5323 16.7375 12.3677 16.9715 12.255C17.2142 12.1337 17.4525 12.0513 17.6865 12.008C17.9292 11.956 18.1935 11.93 18.4795 11.93C18.8695 11.93 19.2162 12.0167 19.5195 12.19C19.8315 12.3633 20.0742 12.606 20.2475 12.918C20.4295 13.23 20.5205 13.594 20.5205 14.01C20.5205 14.426 20.4382 14.79 20.2735 15.102C20.1175 15.414 19.8879 15.6567 19.5845 15.83C19.2812 16.0033 18.9129 16.09 18.4795 16.09C18.1502 16.09 17.8339 16.0207 17.5305 15.882C17.2272 15.7347 16.9585 15.5483 16.7245 15.323C16.4992 15.089 16.3172 14.842 16.1785 14.582L15.2425 15.219C15.4419 15.5657 15.6845 15.8863 15.9705 16.181C16.2652 16.467 16.6162 16.6967 17.0235 16.87C17.4395 17.0433 17.9249 17.13 18.4795 17.13C18.9215 17.13 19.3332 17.065 19.7145 16.935C20.0959 16.805 20.4339 16.61 20.7285 16.35C21.0232 16.09 21.2529 15.765 21.4175 15.375C21.5822 14.985 21.6645 14.53 21.6645 14.01ZM27.1279 11.02V17H28.1679V11.995H30.3129V11.02H27.1279ZM30.6435 14.01C30.6435 14.608 30.7778 15.1453 31.0465 15.622C31.3238 16.09 31.6965 16.4583 32.1645 16.727C32.6325 16.9957 33.1568 17.13 33.7375 17.13C34.3268 17.13 34.8511 16.9957 35.3105 16.727C35.7785 16.4583 36.1468 16.09 36.4155 15.622C36.6928 15.1453 36.8315 14.608 36.8315 14.01C36.8315 13.4033 36.6928 12.866 36.4155 12.398C36.1468 11.93 35.7785 11.5617 35.3105 11.293C34.8511 11.0243 34.3268 10.89 33.7375 10.89C33.1568 10.89 32.6325 11.0243 32.1645 11.293C31.6965 11.5617 31.3238 11.93 31.0465 12.398C30.7778 12.866 30.6435 13.4033 30.6435 14.01ZM31.6965 14.01C31.6965 13.594 31.7831 13.2257 31.9565 12.905C32.1385 12.5757 32.3811 12.32 32.6845 12.138C32.9965 11.956 33.3475 11.865 33.7375 11.865C34.1275 11.865 34.4741 11.956 34.7775 12.138C35.0895 12.32 35.3321 12.5757 35.5055 12.905C35.6875 13.2257 35.7785 13.594 35.7785 14.01C35.7785 14.426 35.6875 14.7943 35.5055 15.115C35.3321 15.4357 35.0895 15.6913 34.7775 15.882C34.4741 16.064 34.1275 16.155 33.7375 16.155C33.3475 16.155 32.9965 16.064 32.6845 15.882C32.3811 15.6913 32.1385 15.4357 31.9565 15.115C31.7831 14.7943 31.6965 14.426 31.6965 14.01ZM37.3502 11.02V11.995H40.8602V11.02H37.3502ZM38.5852 11.28V17H39.6252V11.28H38.5852ZM41.1933 14.01C41.1933 14.608 41.3276 15.1453 41.5963 15.622C41.8736 16.09 42.2463 16.4583 42.7143 16.727C43.1823 16.9957 43.7066 17.13 44.2873 17.13C44.8766 17.13 45.4009 16.9957 45.8603 16.727C46.3283 16.4583 46.6966 16.09 46.9653 15.622C47.2426 15.1453 47.3813 14.608 47.3813 14.01C47.3813 13.4033 47.2426 12.866 46.9653 12.398C46.6966 11.93 46.3283 11.5617 45.8603 11.293C45.4009 11.0243 44.8766 10.89 44.2873 10.89C43.7066 10.89 43.1823 11.0243 42.7143 11.293C42.2463 11.5617 41.8736 11.93 41.5963 12.398C41.3276 12.866 41.1933 13.4033 41.1933 14.01ZM42.2463 14.01C42.2463 13.594 42.3329 13.2257 42.5063 12.905C42.6883 12.5757 42.9309 12.32 43.2343 12.138C43.5463 11.956 43.8973 11.865 44.2873 11.865C44.6773 11.865 45.0239 11.956 45.3273 12.138C45.6393 12.32 45.8819 12.5757 46.0553 12.905C46.2373 13.2257 46.3283 13.594 46.3283 14.01C46.3283 14.426 46.2373 14.7943 46.0553 15.115C45.8819 15.4357 45.6393 15.6913 45.3273 15.882C45.0239 16.064 44.6773 16.155 44.2873 16.155C43.8973 16.155 43.5463 16.064 43.2343 15.882C42.9309 15.6913 42.6883 15.4357 42.5063 15.115C42.3329 14.7943 42.2463 14.426 42.2463 14.01ZM49.421 13.88V14.426H51.15C51.3493 14.426 51.5183 14.4477 51.657 14.491C51.8043 14.5257 51.9213 14.582 52.008 14.66C52.1033 14.738 52.1726 14.8247 52.216 14.92C52.268 15.0153 52.294 15.1237 52.294 15.245C52.294 15.479 52.1986 15.6783 52.008 15.843C51.826 16.0077 51.54 16.09 51.15 16.09H49.421V17H51.41C52.0946 17 52.5843 16.844 52.879 16.532C53.1823 16.2113 53.334 15.8257 53.334 15.375C53.334 14.985 53.2386 14.6817 53.048 14.465C52.8573 14.2483 52.5973 14.0967 52.268 14.01C51.9386 13.9233 51.566 13.88 51.15 13.88H49.421ZM49.421 14.14H51.02C51.3926 14.14 51.7306 14.088 52.034 13.984C52.346 13.8713 52.5973 13.7067 52.788 13.49C52.9786 13.2647 53.074 12.983 53.074 12.645C53.074 12.255 52.9786 11.943 52.788 11.709C52.5973 11.4663 52.346 11.293 52.034 11.189C51.7306 11.0763 51.3926 11.02 51.02 11.02H49.421V11.93H51.02C51.332 11.93 51.579 12.0037 51.761 12.151C51.943 12.2897 52.034 12.476 52.034 12.71C52.034 12.8227 52.008 12.931 51.956 13.035C51.9126 13.1303 51.8476 13.217 51.761 13.295C51.6743 13.373 51.566 13.4337 51.436 13.477C51.3146 13.5117 51.176 13.529 51.02 13.529H49.421V14.14ZM48.81 11.02V17H49.85V11.02H48.81ZM60.0956 11.02V17H61.1356V11.02H60.0956ZM54.7006 11.02V17H55.7406V11.02H54.7006ZM55.3116 14.192H57.1706C57.5519 14.192 57.8379 14.2743 58.0286 14.439C58.2193 14.6037 58.3146 14.8377 58.3146 15.141C58.3146 15.3403 58.2713 15.5137 58.1846 15.661C58.0979 15.7997 57.9679 15.908 57.7946 15.986C57.6299 16.0553 57.4219 16.09 57.1706 16.09H55.3116V17H57.1706C57.5866 17 57.9593 16.935 58.2886 16.805C58.6179 16.675 58.8779 16.4713 59.0686 16.194C59.2593 15.9167 59.3546 15.5657 59.3546 15.141C59.3546 14.4997 59.1423 14.0317 58.7176 13.737C58.3016 13.4337 57.7859 13.282 57.1706 13.282H55.3116V14.192ZM66.2645 11.02L64.8345 13.1L63.4045 11.02H62.2345L64.2755 13.919L62.1045 17H63.2745L64.8345 14.738L66.3945 17H67.5645L65.3935 13.919L67.4345 11.02H66.2645ZM75.6859 12.814L77.4409 16.61H78.6109L75.6859 10.565L72.7609 16.61H73.9309L75.6859 12.814ZM78.3509 17V18.17H79.3909V16.025H71.9809V18.17H73.0859V17H78.3509ZM83.0735 14.01C83.7582 14.01 84.2912 13.867 84.6725 13.581C85.0625 13.295 85.2575 12.9353 85.2575 12.502C85.2575 12.2073 85.1665 11.9387 84.9845 11.696C84.8112 11.4533 84.5685 11.2583 84.2565 11.111C83.9445 10.9637 83.5935 10.89 83.2035 10.89C82.7875 10.89 82.4148 10.9767 82.0855 11.15C81.7562 11.3147 81.4962 11.54 81.3055 11.826C81.1148 12.112 81.0195 12.424 81.0195 12.762H82.0725C82.0725 12.6233 82.1115 12.4847 82.1895 12.346C82.2675 12.1987 82.3888 12.0773 82.5535 11.982C82.7268 11.878 82.9435 11.826 83.2035 11.826C83.5155 11.826 83.7582 11.8953 83.9315 12.034C84.1048 12.164 84.1915 12.346 84.1915 12.58C84.1915 12.7967 84.1048 12.983 83.9315 13.139C83.7582 13.2863 83.4722 13.36 83.0735 13.36V14.01ZM83.1775 17.13C83.6022 17.13 83.9922 17.0563 84.3475 16.909C84.7028 16.753 84.9845 16.5363 85.1925 16.259C85.4092 15.973 85.5175 15.635 85.5175 15.245C85.5175 14.6817 85.2965 14.27 84.8545 14.01C84.4125 13.75 83.8188 13.62 83.0735 13.62V14.27C83.3768 14.27 83.6325 14.309 83.8405 14.387C84.0572 14.465 84.2175 14.5777 84.3215 14.725C84.4342 14.8723 84.4905 15.05 84.4905 15.258C84.4905 15.4487 84.4385 15.6177 84.3345 15.765C84.2305 15.9123 84.0788 16.025 83.8795 16.103C83.6888 16.181 83.4548 16.22 83.1775 16.22C82.7268 16.22 82.4018 16.1073 82.2025 15.882C82.0032 15.6567 81.8732 15.401 81.8125 15.115H80.7595C80.8288 15.6957 81.0715 16.1767 81.4875 16.558C81.9122 16.9393 82.4755 17.13 83.1775 17.13Z" fill="white"/>
</svg>
