<svg width="81" height="24" viewBox="0 0 81 24" fill="none" xmlns="http://www.w3.org/2000/svg">
<rect opacity="0.06" width="81" height="24" rx="5" fill="white"/>
<path d="M9.98604 9.694L12.001 9.096V17H13.106V7.77L9.98604 8.55V9.694ZM15.8386 10.097C15.8386 10.4523 15.8993 10.773 16.0206 11.059C16.1419 11.3363 16.3109 11.5747 16.5276 11.774C16.7529 11.9733 17.0173 12.125 17.3206 12.229C17.6326 12.333 17.9749 12.385 18.3476 12.385C18.7203 12.385 19.0583 12.333 19.3616 12.229C19.6736 12.125 19.9379 11.9733 20.1546 11.774C20.3799 11.5747 20.5533 11.3363 20.6746 11.059C20.7959 10.773 20.8566 10.4523 20.8566 10.097C20.8566 9.66367 20.7439 9.27367 20.5186 8.927C20.3019 8.57167 20.0029 8.29 19.6216 8.082C19.2489 7.874 18.8243 7.77 18.3476 7.77C17.8709 7.77 17.4419 7.874 17.0606 8.082C16.6879 8.29 16.3889 8.57167 16.1636 8.927C15.9469 9.27367 15.8386 9.66367 15.8386 10.097ZM16.8916 10.227C16.8916 9.941 16.9523 9.68533 17.0736 9.46C17.2036 9.23467 17.3769 9.06133 17.5936 8.94C17.8189 8.81 18.0703 8.745 18.3476 8.745C18.6336 8.745 18.8849 8.81 19.1016 8.94C19.3183 9.06133 19.4873 9.23467 19.6086 9.46C19.7386 9.68533 19.8036 9.941 19.8036 10.227C19.8036 10.513 19.7343 10.7643 19.5956 10.981C19.4656 11.1977 19.2879 11.3667 19.0626 11.488C18.8459 11.6093 18.6076 11.67 18.3476 11.67C18.0876 11.67 17.8449 11.6093 17.6196 11.488C17.4029 11.3667 17.2253 11.1977 17.0866 10.981C16.9566 10.7643 16.8916 10.513 16.8916 10.227ZM15.5136 14.53C15.5136 14.8853 15.5829 15.219 15.7216 15.531C15.8689 15.843 16.0683 16.1203 16.3196 16.363C16.5796 16.6057 16.8786 16.7963 17.2166 16.935C17.5633 17.065 17.9403 17.13 18.3476 17.13C18.7549 17.13 19.1276 17.065 19.4656 16.935C19.8123 16.7963 20.1113 16.6057 20.3626 16.363C20.6226 16.1203 20.8219 15.843 20.9606 15.531C21.1079 15.219 21.1816 14.8853 21.1816 14.53C21.1816 14.114 21.1036 13.7457 20.9476 13.425C20.8003 13.0957 20.5923 12.8227 20.3236 12.606C20.0636 12.3807 19.7603 12.2117 19.4136 12.099C19.0756 11.9863 18.7203 11.93 18.3476 11.93C17.9749 11.93 17.6153 11.9863 17.2686 12.099C16.9306 12.2117 16.6273 12.3807 16.3586 12.606C16.0986 12.8227 15.8906 13.0957 15.7346 13.425C15.5873 13.7457 15.5136 14.114 15.5136 14.53ZM16.5666 14.4C16.5666 14.0707 16.6489 13.776 16.8136 13.516C16.9869 13.2473 17.2079 13.035 17.4766 12.879C17.7539 12.723 18.0443 12.645 18.3476 12.645C18.6509 12.645 18.9369 12.723 19.2056 12.879C19.4829 13.035 19.7039 13.2473 19.8686 13.516C20.0419 13.776 20.1286 14.0707 20.1286 14.4C20.1286 14.7727 20.0419 15.089 19.8686 15.349C19.7039 15.609 19.4829 15.8083 19.2056 15.947C18.9369 16.0857 18.6509 16.155 18.3476 16.155C18.0443 16.155 17.7539 16.0857 17.4766 15.947C17.2079 15.8083 16.9869 15.609 16.8136 15.349C16.6489 15.089 16.5666 14.7727 16.5666 14.4ZM32.0067 11.02H26.8717V14.92C26.8717 15.3447 26.7764 15.6393 26.5857 15.804C26.4037 15.9687 26.1827 16.051 25.9227 16.051V17C26.3734 17 26.7461 16.9263 27.0407 16.779C27.3354 16.623 27.5521 16.3933 27.6907 16.09C27.8381 15.778 27.9117 15.388 27.9117 14.92V11.995H30.9667V17H32.0067V11.02ZM34.1597 14.27H39.2687C39.2774 14.218 39.2817 14.166 39.2817 14.114C39.2817 14.062 39.2817 14.01 39.2817 13.958C39.2817 13.3253 39.1647 12.7837 38.9307 12.333C38.6967 11.8737 38.3674 11.5183 37.9427 11.267C37.5181 11.0157 37.0241 10.89 36.4607 10.89C35.9494 10.89 35.4857 10.994 35.0697 11.202C34.6624 11.41 34.3287 11.7003 34.0687 12.073C33.8087 12.4457 33.6354 12.879 33.5487 13.373C33.5314 13.477 33.5184 13.581 33.5097 13.685C33.5011 13.789 33.4967 13.8973 33.4967 14.01C33.4967 14.608 33.6181 15.1453 33.8607 15.622C34.1121 16.09 34.4501 16.4583 34.8747 16.727C35.3081 16.9957 35.7934 17.13 36.3307 17.13C36.8507 17.13 37.2841 17.0693 37.6307 16.948C37.9774 16.818 38.2721 16.6403 38.5147 16.415C38.7574 16.181 38.9784 15.9123 39.1777 15.609L38.3327 15.076C38.2027 15.2927 38.0467 15.4833 37.8647 15.648C37.6827 15.804 37.4747 15.9297 37.2407 16.025C37.0154 16.1117 36.7554 16.155 36.4607 16.155C36.0707 16.155 35.7327 16.0727 35.4467 15.908C35.1607 15.7433 34.9397 15.5007 34.7837 15.18C34.6277 14.8593 34.5497 14.4693 34.5497 14.01L34.5757 13.62C34.5757 13.2473 34.6581 12.9267 34.8227 12.658C34.9961 12.3807 35.2257 12.1683 35.5117 12.021C35.7977 11.8737 36.1141 11.8 36.4607 11.8C36.8074 11.8 37.0977 11.8693 37.3317 12.008C37.5744 12.138 37.7607 12.3243 37.8907 12.567C38.0294 12.801 38.1161 13.074 38.1507 13.386H34.1597V14.27ZM40.6422 11.02V17H41.6822V11.02H40.6422ZM43.8922 11.02L41.2922 13.49L44.1522 17H45.4522L42.5922 13.49L45.1922 11.02H43.8922ZM51.3078 16.025V11.02H50.2678V16.025H47.4728V11.02H46.4328V17H51.4378V18.17H52.3478V16.025H51.3078ZM58.7883 12.06L58.8534 10.565L53.9133 15.96L53.8483 17.455L58.7883 12.06ZM54.8883 11.02H53.8483V17.455L54.8883 16.025V11.02ZM58.8534 10.565L57.8133 11.995V17H58.8534V10.565ZM65.8723 12.06L65.9373 10.565L60.9973 15.96L60.9323 17.455L65.8723 12.06ZM61.9723 11.02H60.9323V17.455L61.9723 16.025V11.02ZM65.9373 10.565L64.8973 11.995V17H65.9373V10.565ZM61.4133 7.965C61.4133 8.25967 61.487 8.55 61.6343 8.836C61.7903 9.11333 62.02 9.343 62.3233 9.525C62.6353 9.69833 63.0167 9.785 63.4673 9.785C63.9267 9.785 64.308 9.69833 64.6113 9.525C64.9147 9.343 65.14 9.11333 65.2873 8.836C65.4433 8.55 65.5213 8.25967 65.5213 7.965H64.5983C64.5983 8.07767 64.568 8.212 64.5073 8.368C64.4467 8.51533 64.334 8.64967 64.1693 8.771C64.0047 8.88367 63.7707 8.94 63.4673 8.94C63.164 8.94 62.93 8.88367 62.7653 8.771C62.6007 8.64967 62.488 8.51533 62.4273 8.368C62.3667 8.212 62.3363 8.07767 62.3363 7.965H61.4133Z" fill="white"/>
</svg>
