<svg width="111" height="24" viewBox="0 0 111 24" fill="none" xmlns="http://www.w3.org/2000/svg">
<g clip-path="url(#clip0_0_192)">
<rect opacity="0.06" width="103" height="24" rx="5" fill="white"/>
<path opacity="0.6" d="M69.53 14.46H71.257V13.635H69.53V14.46ZM70.63 10.94V16H71.51V10.94H70.63ZM68.43 10.94H67.55V12.392C67.55 12.8833 67.6087 13.283 67.726 13.591C67.8433 13.8917 68.045 14.1117 68.331 14.251C68.6243 14.3903 69.024 14.46 69.53 14.46V13.635C69.2513 13.635 69.0313 13.5947 68.87 13.514C68.7087 13.426 68.595 13.2903 68.529 13.107C68.463 12.9237 68.43 12.6853 68.43 12.392V10.94ZM73.5599 14.515C73.5599 14.3097 73.6075 14.1337 73.7029 13.987C73.7982 13.8403 73.9412 13.7267 74.1319 13.646C74.3299 13.5653 74.5755 13.525 74.8689 13.525C75.1915 13.525 75.4812 13.569 75.7379 13.657C75.9945 13.7377 76.2475 13.866 76.4969 14.042V13.525C76.4455 13.459 76.3502 13.3747 76.2109 13.272C76.0715 13.162 75.8845 13.0667 75.6499 12.986C75.4225 12.898 75.1475 12.854 74.8249 12.854C74.3849 12.854 74.0035 12.9237 73.6809 13.063C73.3582 13.195 73.1089 13.3857 72.9329 13.635C72.7569 13.8843 72.6689 14.1887 72.6689 14.548C72.6689 14.8927 72.7459 15.1823 72.8999 15.417C73.0612 15.6443 73.2739 15.8167 73.5379 15.934C73.8019 16.0513 74.0915 16.11 74.4069 16.11C74.7589 16.11 75.0779 16.0513 75.3639 15.934C75.6499 15.8093 75.8772 15.6333 76.0459 15.406C76.2219 15.1713 76.3099 14.8927 76.3099 14.57L76.1339 14.02C76.1339 14.3353 76.0679 14.5883 75.9359 14.779C75.8112 14.9697 75.6352 15.109 75.4079 15.197C75.1805 15.285 74.9202 15.329 74.6269 15.329C74.4289 15.329 74.2492 15.2997 74.0879 15.241C73.9265 15.175 73.7982 15.0833 73.7029 14.966C73.6075 14.8413 73.5599 14.691 73.5599 14.515ZM73.5599 12.128C73.6405 12.0693 73.7505 11.9997 73.8899 11.919C74.0365 11.831 74.2089 11.7577 74.4069 11.699C74.6049 11.633 74.8249 11.6 75.0669 11.6C75.3455 11.6 75.5912 11.666 75.8039 11.798C76.0239 11.9227 76.1339 12.1133 76.1339 12.37V16H77.0139V12.37C77.0139 12.04 76.9295 11.7613 76.7609 11.534C76.5995 11.3067 76.3722 11.1343 76.0789 11.017C75.7929 10.8923 75.4555 10.83 75.0669 10.83C74.6122 10.83 74.2235 10.8997 73.9009 11.039C73.5782 11.1783 73.3215 11.3177 73.1309 11.457L73.5599 12.128ZM78.8987 13.47C78.8987 13.118 78.9721 12.8063 79.1187 12.535C79.2727 12.2563 79.4781 12.04 79.7347 11.886C79.9987 11.732 80.2957 11.655 80.6257 11.655C80.8971 11.655 81.1501 11.699 81.3847 11.787C81.6267 11.8677 81.8357 11.9777 82.0117 12.117C82.1877 12.2563 82.3124 12.4103 82.3857 12.579V11.479C82.2097 11.2737 81.9567 11.116 81.6267 11.006C81.3041 10.8887 80.9704 10.83 80.6257 10.83C80.1344 10.83 79.6907 10.9437 79.2947 11.171C78.8987 11.3983 78.5834 11.71 78.3487 12.106C78.1214 12.502 78.0077 12.9567 78.0077 13.47C78.0077 13.976 78.1214 14.4307 78.3487 14.834C78.5834 15.23 78.8987 15.5417 79.2947 15.769C79.6907 15.9963 80.1344 16.11 80.6257 16.11C80.9704 16.11 81.3041 16.055 81.6267 15.945C81.9567 15.8277 82.2097 15.6663 82.3857 15.461V14.361C82.3124 14.5223 82.1877 14.6763 82.0117 14.823C81.8357 14.9623 81.6267 15.076 81.3847 15.164C81.1501 15.2447 80.8971 15.285 80.6257 15.285C80.2957 15.285 79.9987 15.208 79.7347 15.054C79.4781 14.8927 79.2727 14.6763 79.1187 14.405C78.9721 14.1337 78.8987 13.822 78.8987 13.47ZM83.3157 13.47C83.3157 13.976 83.4293 14.4307 83.6567 14.834C83.8913 15.23 84.2067 15.5417 84.6027 15.769C84.9987 15.9963 85.4423 16.11 85.9337 16.11C86.4323 16.11 86.876 15.9963 87.2647 15.769C87.6607 15.5417 87.9723 15.23 88.1997 14.834C88.4343 14.4307 88.5517 13.976 88.5517 13.47C88.5517 12.9567 88.4343 12.502 88.1997 12.106C87.9723 11.71 87.6607 11.3983 87.2647 11.171C86.876 10.9437 86.4323 10.83 85.9337 10.83C85.4423 10.83 84.9987 10.9437 84.6027 11.171C84.2067 11.3983 83.8913 11.71 83.6567 12.106C83.4293 12.502 83.3157 12.9567 83.3157 13.47ZM84.2067 13.47C84.2067 13.118 84.28 12.8063 84.4267 12.535C84.5807 12.2563 84.786 12.04 85.0427 11.886C85.3067 11.732 85.6037 11.655 85.9337 11.655C86.2637 11.655 86.557 11.732 86.8137 11.886C87.0777 12.04 87.283 12.2563 87.4297 12.535C87.5837 12.8063 87.6607 13.118 87.6607 13.47C87.6607 13.822 87.5837 14.1337 87.4297 14.405C87.283 14.6763 87.0777 14.8927 86.8137 15.054C86.557 15.208 86.2637 15.285 85.9337 15.285C85.6037 15.285 85.3067 15.208 85.0427 15.054C84.786 14.8927 84.5807 14.6763 84.4267 14.405C84.28 14.1337 84.2067 13.822 84.2067 13.47ZM90.2775 13.36V13.822H91.7405C91.9092 13.822 92.0522 13.8403 92.1695 13.877C92.2942 13.9063 92.3932 13.954 92.4665 14.02C92.5472 14.086 92.6059 14.1593 92.6425 14.24C92.6865 14.3207 92.7085 14.4123 92.7085 14.515C92.7085 14.713 92.6279 14.8817 92.4665 15.021C92.3125 15.1603 92.0705 15.23 91.7405 15.23H90.2775V16H91.9605C92.5399 16 92.9542 15.868 93.2035 15.604C93.4602 15.3327 93.5885 15.0063 93.5885 14.625C93.5885 14.295 93.5079 14.0383 93.3465 13.855C93.1852 13.6717 92.9652 13.5433 92.6865 13.47C92.4079 13.3967 92.0925 13.36 91.7405 13.36H90.2775ZM90.2775 13.58H91.6305C91.9459 13.58 92.2319 13.536 92.4885 13.448C92.7525 13.3527 92.9652 13.2133 93.1265 13.03C93.2879 12.8393 93.3685 12.601 93.3685 12.315C93.3685 11.985 93.2879 11.721 93.1265 11.523C92.9652 11.3177 92.7525 11.171 92.4885 11.083C92.2319 10.9877 91.9459 10.94 91.6305 10.94H90.2775V11.71H91.6305C91.8945 11.71 92.1035 11.7723 92.2575 11.897C92.4115 12.0143 92.4885 12.172 92.4885 12.37C92.4885 12.4653 92.4665 12.557 92.4225 12.645C92.3859 12.7257 92.3309 12.799 92.2575 12.865C92.1842 12.931 92.0925 12.9823 91.9825 13.019C91.8799 13.0483 91.7625 13.063 91.6305 13.063H90.2775V13.58ZM89.7605 10.94V16H90.6405V10.94H89.7605Z" fill="white"/>
<path d="M31.923 10.266L34.107 9.694V17H35.914V7.744L31.923 8.589V10.266ZM37.6457 17H44.9647V15.297H41.1557L43.5217 13.061C43.9031 12.7143 44.2107 12.3287 44.4447 11.904C44.6787 11.4793 44.7957 11.0243 44.7957 10.539C44.7957 10.2097 44.7264 9.88033 44.5877 9.551C44.4577 9.22167 44.2541 8.92267 43.9767 8.654C43.7081 8.37667 43.3657 8.15567 42.9497 7.991C42.5424 7.81767 42.0657 7.731 41.5197 7.731C40.7831 7.731 40.1591 7.887 39.6477 8.199C39.1451 8.50233 38.7637 8.914 38.5037 9.434C38.2437 9.954 38.1137 10.539 38.1137 11.189H39.9337C39.9337 10.825 39.9944 10.5043 40.1157 10.227C40.2457 9.94967 40.4234 9.73733 40.6487 9.59C40.8827 9.434 41.1601 9.356 41.4807 9.356C41.7061 9.356 41.9054 9.395 42.0787 9.473C42.2521 9.54233 42.3994 9.63767 42.5207 9.759C42.6421 9.88033 42.7331 10.019 42.7937 10.175C42.8544 10.331 42.8847 10.4913 42.8847 10.656C42.8847 10.89 42.8414 11.1153 42.7547 11.332C42.6681 11.5487 42.5424 11.7653 42.3777 11.982C42.2131 12.1987 42.0137 12.4327 41.7797 12.684L37.6457 17ZM47.8885 12.45C47.8885 11.9907 47.9319 11.5747 48.0185 11.202C48.1052 10.8207 48.2309 10.4957 48.3955 10.227C48.5602 9.94967 48.7552 9.73733 48.9805 9.59C49.2059 9.44267 49.4572 9.369 49.7345 9.369C50.0205 9.369 50.2762 9.44267 50.5015 9.59C50.7269 9.73733 50.9219 9.94967 51.0865 10.227C51.2512 10.4957 51.3769 10.8207 51.4635 11.202C51.5502 11.5747 51.5935 11.9907 51.5935 12.45C51.5935 12.9093 51.5502 13.3297 51.4635 13.711C51.3769 14.0837 51.2512 14.4087 51.0865 14.686C50.9219 14.9547 50.7269 15.1627 50.5015 15.31C50.2762 15.4573 50.0205 15.531 49.7345 15.531C49.4572 15.531 49.2059 15.4573 48.9805 15.31C48.7552 15.1627 48.5602 14.9547 48.3955 14.686C48.2309 14.4087 48.1052 14.0837 48.0185 13.711C47.9319 13.3297 47.8885 12.9093 47.8885 12.45ZM46.0815 12.45C46.0815 13.412 46.2332 14.244 46.5365 14.946C46.8485 15.648 47.2775 16.194 47.8235 16.584C48.3782 16.9653 49.0152 17.156 49.7345 17.156C50.4799 17.156 51.1255 16.9653 51.6715 16.584C52.2175 16.194 52.6422 15.648 52.9455 14.946C53.2489 14.244 53.4005 13.412 53.4005 12.45C53.4005 11.488 53.2489 10.656 52.9455 9.954C52.6422 9.252 52.2175 8.71033 51.6715 8.329C51.1255 7.939 50.4799 7.744 49.7345 7.744C49.0152 7.744 48.3782 7.939 47.8235 8.329C47.2775 8.71033 46.8485 9.252 46.5365 9.954C46.2332 10.656 46.0815 11.488 46.0815 12.45ZM56.242 12.45C56.242 11.9907 56.2854 11.5747 56.372 11.202C56.4587 10.8207 56.5844 10.4957 56.749 10.227C56.9137 9.94967 57.1087 9.73733 57.334 9.59C57.5594 9.44267 57.8107 9.369 58.088 9.369C58.374 9.369 58.6297 9.44267 58.855 9.59C59.0804 9.73733 59.2754 9.94967 59.44 10.227C59.6047 10.4957 59.7304 10.8207 59.817 11.202C59.9037 11.5747 59.947 11.9907 59.947 12.45C59.947 12.9093 59.9037 13.3297 59.817 13.711C59.7304 14.0837 59.6047 14.4087 59.44 14.686C59.2754 14.9547 59.0804 15.1627 58.855 15.31C58.6297 15.4573 58.374 15.531 58.088 15.531C57.8107 15.531 57.5594 15.4573 57.334 15.31C57.1087 15.1627 56.9137 14.9547 56.749 14.686C56.5844 14.4087 56.4587 14.0837 56.372 13.711C56.2854 13.3297 56.242 12.9093 56.242 12.45ZM54.435 12.45C54.435 13.412 54.5867 14.244 54.89 14.946C55.202 15.648 55.631 16.194 56.177 16.584C56.7317 16.9653 57.3687 17.156 58.088 17.156C58.8334 17.156 59.479 16.9653 60.025 16.584C60.571 16.194 60.9957 15.648 61.299 14.946C61.6024 14.244 61.754 13.412 61.754 12.45C61.754 11.488 61.6024 10.656 61.299 9.954C60.9957 9.252 60.571 8.71033 60.025 8.329C59.479 7.939 58.8334 7.744 58.088 7.744C57.3687 7.744 56.7317 7.939 56.177 8.329C55.631 8.71033 55.202 9.252 54.89 9.954C54.5867 10.656 54.435 11.488 54.435 12.45Z" fill="white"/>
<g filter="url(#filter0_d_0_192)">
<rect x="3" y="3" width="18" height="18" rx="4" fill="#FF4738"/>
</g>
<path d="M15.9807 10.1156C15.947 10.0452 15.8743 10 15.7942 10H13.3545L15.7623 6.30701C15.8024 6.24541 15.8049 6.16741 15.7687 6.10362C15.7324 6.03961 15.6632 6 15.5883 6H12.2942C12.2162 6 12.1449 6.0428 12.1099 6.1106L9.02171 12.1106C8.98979 12.1724 8.99329 12.246 9.03076 12.305C9.06844 12.364 9.13453 12.4 9.20597 12.4H11.323L9.01614 17.7224C8.97681 17.8134 9.01182 17.919 9.09848 17.9706C9.13182 17.9904 9.16888 18 9.20575 18C9.26484 18 9.3231 17.9754 9.36347 17.929L15.9517 10.329C16.0034 10.2694 16.0145 10.1862 15.9807 10.1156Z" fill="white"/>
</g>
<defs>
<filter id="filter0_d_0_192" x="-9" y="-9" width="42" height="42" filterUnits="userSpaceOnUse" color-interpolation-filters="sRGB">
<feFlood flood-opacity="0" result="BackgroundImageFix"/>
<feColorMatrix in="SourceAlpha" type="matrix" values="0 0 0 0 0 0 0 0 0 0 0 0 0 0 0 0 0 0 127 0" result="hardAlpha"/>
<feOffset/>
<feGaussianBlur stdDeviation="6"/>
<feColorMatrix type="matrix" values="0 0 0 0 1 0 0 0 0 0.278431 0 0 0 0 0.219608 0 0 0 0.5 0"/>
<feBlend mode="normal" in2="BackgroundImageFix" result="effect1_dropShadow_0_192"/>
<feBlend mode="normal" in="SourceGraphic" in2="effect1_dropShadow_0_192" result="shape"/>
</filter>
<clipPath id="clip0_0_192">
<rect width="111" height="24" fill="white"/>
</clipPath>
</defs>
</svg>
