<svg width="220" height="22" viewBox="0 0 220 22" fill="none" xmlns="http://www.w3.org/2000/svg">
<g clip-path="url(#clip0_0_210)">
<rect opacity="0.2" x="178.5" y="0.5" width="41" height="21" rx="10.5" stroke="white"/>
<g filter="url(#filter0_d_0_210)">
<circle cx="209" cy="11" r="8" fill="#6F6EFF"/>
</g>
<path opacity="0.5" d="M7.7 7.32V16H8.89V6.2H1.12V16H2.31V7.32H7.7ZM10.4978 12.78C10.4978 13.424 10.6425 14.0027 10.9318 14.516C11.2305 15.02 11.6318 15.4167 12.1358 15.706C12.6398 15.9953 13.2045 16.14 13.8298 16.14C14.4645 16.14 15.0291 15.9953 15.5238 15.706C16.0278 15.4167 16.4245 15.02 16.7138 14.516C17.0125 14.0027 17.1618 13.424 17.1618 12.78C17.1618 12.1267 17.0125 11.548 16.7138 11.044C16.4245 10.54 16.0278 10.1433 15.5238 9.854C15.0291 9.56467 14.4645 9.42 13.8298 9.42C13.2045 9.42 12.6398 9.56467 12.1358 9.854C11.6318 10.1433 11.2305 10.54 10.9318 11.044C10.6425 11.548 10.4978 12.1267 10.4978 12.78ZM11.6318 12.78C11.6318 12.332 11.7251 11.9353 11.9118 11.59C12.1078 11.2353 12.3691 10.96 12.6958 10.764C13.0318 10.568 13.4098 10.47 13.8298 10.47C14.2498 10.47 14.6231 10.568 14.9498 10.764C15.2858 10.96 15.5471 11.2353 15.7338 11.59C15.9298 11.9353 16.0278 12.332 16.0278 12.78C16.0278 13.228 15.9298 13.6247 15.7338 13.97C15.5471 14.3153 15.2858 14.5907 14.9498 14.796C14.6231 14.992 14.2498 15.09 13.8298 15.09C13.4098 15.09 13.0318 14.992 12.6958 14.796C12.3691 14.5907 12.1078 14.3153 11.9118 13.97C11.7251 13.6247 11.6318 13.228 11.6318 12.78ZM24.3424 9.56H18.8124V13.76C18.8124 14.2173 18.7097 14.5347 18.5044 14.712C18.3084 14.8893 18.0704 14.978 17.7904 14.978V16C18.2757 16 18.6771 15.9207 18.9944 15.762C19.3117 15.594 19.5451 15.3467 19.6944 15.02C19.8531 14.684 19.9324 14.264 19.9324 13.76V10.61H23.2224V16H24.3424V9.56ZM31.617 9.56H30.357L28.369 14.544L28.831 14.6L26.787 9.56H25.457L27.921 15.09L26.157 19.08H27.417L31.617 9.56ZM34.843 14.04H37.041V12.99H34.843V14.04ZM36.243 9.56V16H37.363V9.56H36.243ZM33.443 9.56H32.323V11.408C32.323 12.0333 32.3977 12.542 32.547 12.934C32.6964 13.3167 32.953 13.5967 33.317 13.774C33.6904 13.9513 34.199 14.04 34.843 14.04V12.99C34.4884 12.99 34.2084 12.9387 34.003 12.836C33.7977 12.724 33.653 12.5513 33.569 12.318C33.485 12.0847 33.443 11.7813 33.443 11.408V9.56ZM39.972 14.11C39.972 13.8487 40.0326 13.6247 40.154 13.438C40.2753 13.2513 40.4573 13.1067 40.7 13.004C40.952 12.9013 41.2646 12.85 41.638 12.85C42.0486 12.85 42.4173 12.906 42.744 13.018C43.0706 13.1207 43.3926 13.284 43.71 13.508V12.85C43.6446 12.766 43.5233 12.6587 43.346 12.528C43.1686 12.388 42.9306 12.2667 42.632 12.164C42.3426 12.052 41.9926 11.996 41.582 11.996C41.022 11.996 40.5366 12.0847 40.126 12.262C39.7153 12.43 39.398 12.6727 39.174 12.99C38.95 13.3073 38.838 13.6947 38.838 14.152C38.838 14.5907 38.936 14.9593 39.132 15.258C39.3373 15.5473 39.608 15.7667 39.944 15.916C40.28 16.0653 40.6486 16.14 41.05 16.14C41.498 16.14 41.904 16.0653 42.268 15.916C42.632 15.7573 42.9213 15.5333 43.136 15.244C43.36 14.9453 43.472 14.5907 43.472 14.18L43.248 13.48C43.248 13.8813 43.164 14.2033 42.996 14.446C42.8373 14.6887 42.6133 14.866 42.324 14.978C42.0346 15.09 41.7033 15.146 41.33 15.146C41.078 15.146 40.8493 15.1087 40.644 15.034C40.4386 14.95 40.2753 14.8333 40.154 14.684C40.0326 14.5253 39.972 14.334 39.972 14.11ZM39.972 11.072C40.0746 10.9973 40.2146 10.9087 40.392 10.806C40.5786 10.694 40.798 10.6007 41.05 10.526C41.302 10.442 41.582 10.4 41.89 10.4C42.2446 10.4 42.5573 10.484 42.828 10.652C43.108 10.8107 43.248 11.0533 43.248 11.38V16H44.368V11.38C44.368 10.96 44.2606 10.6053 44.046 10.316C43.8406 10.0267 43.5513 9.80733 43.178 9.658C42.814 9.49933 42.3846 9.42 41.89 9.42C41.3113 9.42 40.8166 9.50867 40.406 9.686C39.9953 9.86333 39.6686 10.0407 39.426 10.218L39.972 11.072ZM45.2829 9.56V10.61H49.0629V9.56H45.2829ZM46.6129 9.84V16H47.7329V9.84H46.6129ZM50.1867 9.56V16H51.3067V9.56H50.1867ZM50.8447 12.976H52.8467C53.2574 12.976 53.5654 13.0647 53.7707 13.242C53.9761 13.4193 54.0787 13.6713 54.0787 13.998C54.0787 14.2127 54.0321 14.3993 53.9387 14.558C53.8454 14.7073 53.7054 14.824 53.5187 14.908C53.3414 14.9827 53.1174 15.02 52.8467 15.02H50.8447V16H52.8467C53.2947 16 53.6961 15.93 54.0507 15.79C54.4054 15.65 54.6854 15.4307 54.8907 15.132C55.0961 14.8333 55.1987 14.4553 55.1987 13.998C55.1987 13.3073 54.9701 12.8033 54.5127 12.486C54.0647 12.1593 53.5094 11.996 52.8467 11.996H50.8447V12.976ZM62.2016 19.08V9.56H61.0816V19.08H62.2016ZM67.5916 12.78C67.5916 12.08 67.4469 11.4827 67.1576 10.988C66.8682 10.484 66.4809 10.0967 65.9956 9.826C65.5196 9.55533 64.9876 9.42 64.3996 9.42C63.8676 9.42 63.3962 9.55533 62.9856 9.826C62.5842 10.0967 62.2669 10.484 62.0336 10.988C61.8096 11.4827 61.6976 12.08 61.6976 12.78C61.6976 13.4707 61.8096 14.068 62.0336 14.572C62.2669 15.076 62.5842 15.4633 62.9856 15.734C63.3962 16.0047 63.8676 16.14 64.3996 16.14C64.9876 16.14 65.5196 16.0047 65.9956 15.734C66.4809 15.4633 66.8682 15.076 67.1576 14.572C67.4469 14.068 67.5916 13.4707 67.5916 12.78ZM66.4576 12.78C66.4576 13.2747 66.3549 13.6947 66.1496 14.04C65.9536 14.3853 65.6876 14.6467 65.3516 14.824C65.0249 15.0013 64.6609 15.09 64.2596 15.09C63.9329 15.09 63.6109 15.0013 63.2936 14.824C62.9762 14.6467 62.7149 14.3853 62.5096 14.04C62.3042 13.6947 62.2016 13.2747 62.2016 12.78C62.2016 12.2853 62.3042 11.8653 62.5096 11.52C62.7149 11.1747 62.9762 10.9133 63.2936 10.736C63.6109 10.5587 63.9329 10.47 64.2596 10.47C64.6609 10.47 65.0249 10.5587 65.3516 10.736C65.6876 10.9133 65.9536 11.1747 66.1496 11.52C66.3549 11.8653 66.4576 12.2853 66.4576 12.78ZM69.6399 14.11C69.6399 13.8487 69.7006 13.6247 69.8219 13.438C69.9433 13.2513 70.1253 13.1067 70.3679 13.004C70.6199 12.9013 70.9326 12.85 71.3059 12.85C71.7166 12.85 72.0853 12.906 72.4119 13.018C72.7386 13.1207 73.0606 13.284 73.3779 13.508V12.85C73.3126 12.766 73.1913 12.6587 73.0139 12.528C72.8366 12.388 72.5986 12.2667 72.2999 12.164C72.0106 12.052 71.6606 11.996 71.2499 11.996C70.6899 11.996 70.2046 12.0847 69.7939 12.262C69.3833 12.43 69.0659 12.6727 68.8419 12.99C68.6179 13.3073 68.5059 13.6947 68.5059 14.152C68.5059 14.5907 68.6039 14.9593 68.7999 15.258C69.0053 15.5473 69.2759 15.7667 69.6119 15.916C69.9479 16.0653 70.3166 16.14 70.7179 16.14C71.1659 16.14 71.5719 16.0653 71.9359 15.916C72.2999 15.7573 72.5893 15.5333 72.8039 15.244C73.0279 14.9453 73.1399 14.5907 73.1399 14.18L72.9159 13.48C72.9159 13.8813 72.8319 14.2033 72.6639 14.446C72.5053 14.6887 72.2813 14.866 71.9919 14.978C71.7026 15.09 71.3713 15.146 70.9979 15.146C70.7459 15.146 70.5173 15.1087 70.3119 15.034C70.1066 14.95 69.9433 14.8333 69.8219 14.684C69.7006 14.5253 69.6399 14.334 69.6399 14.11ZM69.6399 11.072C69.7426 10.9973 69.8826 10.9087 70.0599 10.806C70.2466 10.694 70.4659 10.6007 70.7179 10.526C70.9699 10.442 71.2499 10.4 71.5579 10.4C71.9126 10.4 72.2253 10.484 72.4959 10.652C72.7759 10.8107 72.9159 11.0533 72.9159 11.38V16H74.0359V11.38C74.0359 10.96 73.9286 10.6053 73.7139 10.316C73.5086 10.0267 73.2193 9.80733 72.8459 9.658C72.4819 9.49933 72.0526 9.42 71.5579 9.42C70.9793 9.42 70.4846 9.50867 70.0739 9.686C69.6633 9.86333 69.3366 10.0407 69.0939 10.218L69.6399 11.072ZM76.4349 12.78C76.4349 12.332 76.5282 11.9353 76.7149 11.59C76.9109 11.2353 77.1722 10.96 77.4989 10.764C77.8349 10.568 78.2129 10.47 78.6329 10.47C78.9782 10.47 79.3002 10.526 79.5989 10.638C79.9069 10.7407 80.1729 10.8807 80.3969 11.058C80.6209 11.2353 80.7795 11.4313 80.8729 11.646V10.246C80.6489 9.98467 80.3269 9.784 79.9069 9.644C79.4962 9.49467 79.0715 9.42 78.6329 9.42C78.0075 9.42 77.4429 9.56467 76.9389 9.854C76.4349 10.1433 76.0335 10.54 75.7349 11.044C75.4455 11.548 75.3009 12.1267 75.3009 12.78C75.3009 13.424 75.4455 14.0027 75.7349 14.516C76.0335 15.02 76.4349 15.4167 76.9389 15.706C77.4429 15.9953 78.0075 16.14 78.6329 16.14C79.0715 16.14 79.4962 16.07 79.9069 15.93C80.3269 15.7807 80.6489 15.5753 80.8729 15.314V13.914C80.7795 14.1193 80.6209 14.3153 80.3969 14.502C80.1729 14.6793 79.9069 14.824 79.5989 14.936C79.3002 15.0387 78.9782 15.09 78.6329 15.09C78.2129 15.09 77.8349 14.992 77.4989 14.796C77.1722 14.5907 76.9109 14.3153 76.7149 13.97C76.5282 13.6247 76.4349 13.228 76.4349 12.78ZM83.1204 12.78C83.1204 12.332 83.2137 11.9353 83.4004 11.59C83.5964 11.2353 83.8577 10.96 84.1844 10.764C84.5204 10.568 84.8984 10.47 85.3184 10.47C85.6637 10.47 85.9857 10.526 86.2844 10.638C86.5924 10.7407 86.8584 10.8807 87.0824 11.058C87.3064 11.2353 87.4651 11.4313 87.5584 11.646V10.246C87.3344 9.98467 87.0124 9.784 86.5924 9.644C86.1817 9.49467 85.7571 9.42 85.3184 9.42C84.6931 9.42 84.1284 9.56467 83.6244 9.854C83.1204 10.1433 82.7191 10.54 82.4204 11.044C82.1311 11.548 81.9864 12.1267 81.9864 12.78C81.9864 13.424 82.1311 14.0027 82.4204 14.516C82.7191 15.02 83.1204 15.4167 83.6244 15.706C84.1284 15.9953 84.6931 16.14 85.3184 16.14C85.7571 16.14 86.1817 16.07 86.5924 15.93C87.0124 15.7807 87.3344 15.5753 87.5584 15.314V13.914C87.4651 14.1193 87.3064 14.3153 87.0824 14.502C86.8584 14.6793 86.5924 14.824 86.2844 14.936C85.9857 15.0387 85.6637 15.09 85.3184 15.09C84.8984 15.09 84.5204 14.992 84.1844 14.796C83.8577 14.5907 83.5964 14.3153 83.4004 13.97C83.2137 13.6247 83.1204 13.228 83.1204 12.78ZM95.112 9.56V16H96.232V9.56H95.112ZM89.302 9.56V16H90.422V9.56H89.302ZM89.96 12.976H91.962C92.3726 12.976 92.6806 13.0647 92.886 13.242C93.0913 13.4193 93.194 13.6713 93.194 13.998C93.194 14.2127 93.1473 14.3993 93.054 14.558C92.9606 14.7073 92.8206 14.824 92.634 14.908C92.4566 14.9827 92.2326 15.02 91.962 15.02H89.96V16H91.962C92.41 16 92.8113 15.93 93.166 15.79C93.5206 15.65 93.8006 15.4307 94.006 15.132C94.2113 14.8333 94.314 14.4553 94.314 13.998C94.314 13.3073 94.0853 12.8033 93.628 12.486C93.18 12.1593 92.6246 11.996 91.962 11.996H89.96V12.976ZM103.967 9.56H98.4374V13.76C98.4374 14.2173 98.3347 14.5347 98.1294 14.712C97.9334 14.8893 97.6954 14.978 97.4154 14.978V16C97.9007 16 98.3021 15.9207 98.6194 15.762C98.9367 15.594 99.1701 15.3467 99.3194 15.02C99.4781 14.684 99.5574 14.264 99.5574 13.76V10.61H102.847V16H103.967V9.56ZM106.062 9.56V16H107.182V9.56H106.062ZM109.562 9.56L106.762 12.22L109.842 16H111.242L108.162 12.22L110.962 9.56H109.562ZM117.613 9.56H116.353L114.365 14.544L114.827 14.6L112.783 9.56H111.453L113.917 15.09L112.153 19.08H113.413L117.613 9.56Z" fill="white"/>
</g>
<defs>
<filter id="filter0_d_0_210" x="189" y="-9" width="40" height="40" filterUnits="userSpaceOnUse" color-interpolation-filters="sRGB">
<feFlood flood-opacity="0" result="BackgroundImageFix"/>
<feColorMatrix in="SourceAlpha" type="matrix" values="0 0 0 0 0 0 0 0 0 0 0 0 0 0 0 0 0 0 127 0" result="hardAlpha"/>
<feOffset/>
<feGaussianBlur stdDeviation="6"/>
<feColorMatrix type="matrix" values="0 0 0 0 0.435294 0 0 0 0 0.431373 0 0 0 0 1 0 0 0 0.5 0"/>
<feBlend mode="normal" in2="BackgroundImageFix" result="effect1_dropShadow_0_210"/>
<feBlend mode="normal" in="SourceGraphic" in2="effect1_dropShadow_0_210" result="shape"/>
</filter>
<clipPath id="clip0_0_210">
<rect width="220" height="22" fill="white"/>
</clipPath>
</defs>
</svg>
